<svg width="24" height="24" viewBox="0 0 24 24" fill="none" xmlns="http://www.w3.org/2000/svg">
    <path d="M14 4C14.1326 4 14.2598 3.94732 14.3536 3.85355C14.4473 3.75979 14.5 3.63261 14.5 3.5C14.5 3.36739 14.4473 3.24021 14.3536 3.14645C14.2598 3.05268 14.1326 3 14 3V4ZM21 10C21 9.86739 20.9473 9.74021 20.8536 9.64645C20.7598 9.55268 20.6326 9.5 20.5 9.5C20.3674 9.5 20.2402 9.55268 20.1464 9.64645C20.0527 9.74021 20 9.86739 20 10H21ZM14 3H4V4H14V3ZM3 4V20H4V4H3ZM4 21H20V20H4V21ZM21 20V10H20V20H21ZM20 21C20.2652 21 20.5196 20.8946 20.7071 20.7071C20.8946 20.5196 21 20.2652 21 20H20V21ZM3 20C3 20.2652 3.10536 20.5196 3.29289 20.7071C3.48043 20.8946 3.73478 21 4 21V20H3ZM4 3C3.73478 3 3.48043 3.10536 3.29289 3.29289C3.10536 3.48043 3 3.73478 3 4H4V3Z"
          fill="white"/>
    <path d="M17.5004 4.49998L19.5004 6.49998M17.5004 4.49998L9.04035 12.96C9.01275 12.9881 8.99219 13.0224 8.98035 13.06L8.16035 15.53C8.09035 15.73 8.28035 15.91 8.47035 15.84L10.9404 15.02C10.9779 15.0081 11.0122 14.9876 11.0404 14.96L19.5004 6.49998L17.5004 4.49998ZM17.5004 4.49998L19.8204 2.17998C19.9204 2.07998 20.0804 2.07998 20.1804 2.17998L21.8204 3.81998C21.9204 3.91998 21.9204 4.07998 21.8204 4.17998L19.5004 6.49998L17.5004 4.49998Z"
          stroke="white"/>
</svg>
