<svg width="24" height="24" viewBox="0 0 24 24" fill="none" xmlns="http://www.w3.org/2000/svg">
    <path d="M22 9L12.9 2.17C12.6404 1.97526 12.3246 1.87 12 1.87C11.6754 1.87 11.3596 1.97526 11.1 2.17L2 9M4.5 10.75V21.25C4.5 21.39 4.61 21.5 4.75 21.5H9.75C9.89 21.5 10 21.39 10 21.25V15.75C10 15.61 10.11 15.5 10.25 15.5H13.75C13.89 15.5 14 15.61 14 15.75V21.25C14 21.39 14.11 21.5 14.25 21.5H19.25C19.39 21.5 19.5 21.39 19.5 21.25V10.75H4.5Z"
          stroke="white" stroke-linecap="round" stroke-linejoin="round"/>
</svg>
