<svg width="24" height="24" viewBox="0 0 24 24" fill="none" xmlns="http://www.w3.org/2000/svg">
<path d="M18 16.8C18.7231 16.118 19.2959 15.2925 19.6816 14.3765C20.0673 13.4604 20.2575 12.4738 20.24 11.48C20.24 7.36 16.71 4 12.19 4C7.67 4 4 7.36 4 11.48C4 15.61 7.67 18.96 12.2 18.96C13.0041 18.9613 13.8048 18.8537 14.58 18.64C14.81 18.84 15.06 19.03 15.33 19.2C16.39 19.89 17.53 20.24 18.73 20.24C18.95 20.24 19.13 20.13 19.21 19.95C19.2518 19.868 19.2702 19.7761 19.2632 19.6844C19.2561 19.5926 19.2239 19.5046 19.17 19.43C18.5862 18.6468 18.1894 17.7403 18.01 16.78V16.8H18ZM14.88 17.86L14.82 17.64L14.5 17.74C13.7535 17.9613 12.9786 18.0725 12.2 18.07C8.17 18.07 4.9 15.11 4.9 11.48C4.9 7.85 8.17 4.9 12.2 4.9C16.2 4.9 19.3 7.86 19.3 11.5C19.3 13.3 18.7 14.97 17.28 16.22L17.08 16.38V16.64L17.1 16.94C17.2376 17.7888 17.5363 18.6035 17.98 19.34C17.2015 19.2191 16.46 18.9253 15.81 18.48C15.53 18.31 15.09 18.1 14.87 17.89L14.88 17.87V17.86Z" fill="black"/>
</svg>
