<svg width="24" height="24" viewBox="0 0 24 24" fill="none" xmlns="http://www.w3.org/2000/svg">
<path fill-rule="evenodd" clip-rule="evenodd" d="M11.3699 0.830078L11.9999 3.28008L12.6299 0.830078H11.3699ZM13.9199 3.95008L15.4399 1.85008L14.2599 1.45008L13.9199 3.95008ZM8.58988 1.84008L10.1099 3.95008L9.76988 1.45008L8.58988 1.85008V1.84008ZM18.5199 18.9201C17.8335 19.6622 16.9041 20.134 15.8999 20.2501L16.3099 19.8801C18.6999 17.4801 19.1699 14.9301 17.7099 12.2501L16.7999 10.6501L15.9999 8.98008C15.7499 8.42008 15.8099 8.00008 16.2099 7.69008C16.2875 7.63137 16.3765 7.58949 16.4712 7.56711C16.5659 7.54472 16.6642 7.54233 16.7599 7.56008C17.0399 7.61008 17.2999 7.79008 17.4799 8.06008L19.8499 12.2201C20.8199 13.8401 20.9899 16.4501 18.5199 18.9201ZM7.51988 18.4801L3.36988 14.3301C3.23472 14.1712 3.16433 13.9673 3.17272 13.7589C3.18111 13.5505 3.26766 13.3528 3.41515 13.2053C3.56264 13.0579 3.76025 12.9713 3.96867 12.9629C4.17708 12.9545 4.38101 13.0249 4.53988 13.1601L6.69988 15.3201C6.7716 15.3689 6.85823 15.391 6.9446 15.3825C7.03096 15.374 7.11158 15.3353 7.17236 15.2734C7.23313 15.2114 7.27018 15.1301 7.27704 15.0435C7.2839 14.957 7.26013 14.8708 7.20988 14.8001L5.05988 12.6401L3.59988 11.2001C3.46472 11.0412 3.39433 10.8373 3.40272 10.6289C3.41111 10.4205 3.49766 10.2228 3.64515 10.0753C3.79264 9.92786 3.99025 9.84131 4.19867 9.83292C4.40708 9.82453 4.61101 9.89492 4.76988 10.0301L8.19988 13.4701C8.23348 13.5052 8.27384 13.5331 8.31853 13.5522C8.36321 13.5712 8.41129 13.5811 8.45988 13.5811C8.50846 13.5811 8.55655 13.5712 8.60123 13.5522C8.64591 13.5331 8.68627 13.5052 8.71988 13.4701C8.75497 13.4365 8.78289 13.3961 8.80197 13.3514C8.82105 13.3067 8.83088 13.2587 8.83088 13.2101C8.83088 13.1615 8.82105 13.1134 8.80197 13.0687C8.78289 13.024 8.75497 12.9837 8.71988 12.9501L5.28988 9.51008L4.31988 8.54008C4.1684 8.38502 4.08359 8.17685 4.08359 7.96008C4.08359 7.74331 4.1684 7.53514 4.31988 7.38008C4.47662 7.22796 4.68646 7.14288 4.90488 7.14288C5.1233 7.14288 5.33313 7.22796 5.48988 7.38008L6.45988 8.35008L9.89988 11.7801C9.93332 11.8136 9.97306 11.8403 10.0168 11.8584C10.0606 11.8766 10.1075 11.886 10.1549 11.886C10.2023 11.886 10.2492 11.8766 10.2929 11.8584C10.3367 11.8403 10.3764 11.8136 10.4099 11.7801C10.4783 11.7108 10.5166 11.6174 10.5166 11.5201C10.5166 11.4227 10.4783 11.3293 10.4099 11.2601L6.97988 7.83008C6.86354 7.71512 6.78424 7.568 6.75216 7.40762C6.72009 7.24724 6.73671 7.08094 6.79988 6.93008C6.86151 6.77915 6.96673 6.65002 7.1021 6.55918C7.23747 6.46834 7.39685 6.41991 7.55988 6.42008C7.77988 6.42008 7.98988 6.51008 8.13988 6.66008L13.9399 12.4501C14.0031 12.5022 14.0818 12.5318 14.1636 12.5344C14.2455 12.5369 14.3259 12.5122 14.3922 12.4642C14.4585 12.4162 14.507 12.3475 14.5301 12.2689C14.5532 12.1904 14.5496 12.1064 14.5199 12.0301L13.3999 9.67008C13.1399 9.11008 13.1999 8.69008 13.5999 8.38008C13.6775 8.32137 13.7665 8.27949 13.8612 8.2571C13.9559 8.23472 14.0542 8.23233 14.1499 8.25008C14.4299 8.30008 14.6999 8.48008 14.8799 8.75008L17.0799 12.6101C18.3799 14.9901 17.9499 17.2001 15.7899 19.3601C15.2593 19.9172 14.5988 20.334 13.8675 20.5732C13.1363 20.8123 12.3571 20.8662 11.5999 20.7301C10.0444 20.4156 8.62343 19.6301 7.52988 18.4801H7.51988ZM10.7499 5.98008L12.8699 8.09008C12.4599 8.59008 12.3999 9.26008 12.7399 9.99008L12.9599 10.4501L9.43988 6.92008C9.37895 6.80951 9.3447 6.68623 9.33988 6.56008C9.33988 6.33008 9.42988 6.13008 9.57988 5.97008C9.73781 5.82026 9.94719 5.73674 10.1649 5.73674C10.3826 5.73674 10.592 5.82026 10.7499 5.97008V5.98008ZM18.1099 7.68008C17.9738 7.46287 17.7943 7.27613 17.5826 7.13158C17.371 6.98703 17.1317 6.88779 16.8799 6.84008C16.6847 6.80556 16.4844 6.81173 16.2917 6.85819C16.099 6.90465 15.9179 6.9904 15.7599 7.11008C15.4599 7.35008 15.2599 7.66008 15.1799 8.00008C14.9299 7.75008 14.6099 7.60008 14.2699 7.53008C13.9899 7.49008 13.7099 7.53008 13.4499 7.63008L11.2699 5.45008C10.9776 5.1594 10.5821 4.99624 10.1699 4.99624C9.75765 4.99624 9.36218 5.1594 9.06988 5.45008C8.86988 5.65008 8.73988 5.89008 8.66988 6.15008C8.47331 5.95135 8.22697 5.8091 7.9566 5.73817C7.68623 5.66725 7.40177 5.67028 7.13297 5.74693C6.86417 5.82359 6.62091 5.97105 6.42861 6.17391C6.23632 6.37677 6.10206 6.62757 6.03988 6.90008C5.74649 6.60449 5.3494 6.43495 4.933 6.42748C4.51659 6.42002 4.11368 6.5752 3.80988 6.86008C3.5192 7.15238 3.35604 7.54785 3.35604 7.96008C3.35604 8.37231 3.5192 8.76778 3.80988 9.06008C3.56988 9.16008 3.30988 9.30008 3.08988 9.51008C2.7992 9.80238 2.63604 10.1979 2.63604 10.6101C2.63604 11.0223 2.7992 11.4178 3.08988 11.7101L3.60988 12.2301C3.3413 12.2944 3.09461 12.4288 2.895 12.6197C2.6954 12.8105 2.55003 13.0509 2.47376 13.3164C2.39749 13.5818 2.39305 13.8627 2.46088 14.1304C2.52872 14.3981 2.66641 14.643 2.85988 14.8401L6.99988 19.0001C8.20523 20.2587 9.76985 21.1143 11.4799 21.4501C12.6242 21.6658 13.8079 21.4897 14.8399 20.9501C15.6095 21.0497 16.3919 20.9648 17.1222 20.7022C17.8525 20.4396 18.5099 20.007 19.0399 19.4401C21.7899 16.6701 21.5799 13.7001 20.4699 11.8501L18.0999 7.68008H18.1099Z" fill="black"/>
</svg>
