<svg width="20" height="22" viewBox="0 0 20 22" fill="none" xmlns="http://www.w3.org/2000/svg">
    <path d="M19.827 20.2394L14.9656 15.2387C16.2697 13.6965 17.0592 11.6844 17.0592 9.48517C17.0592 4.64416 13.2313 0.711121 8.52961 0.711121C3.82346 0.711121 0 4.64872 0 9.48517C0 14.3216 3.8279 18.2592 8.52961 18.2592C10.6676 18.2592 12.6236 17.4471 14.1229 16.1056L18.9843 21.1063C19.0996 21.225 19.2548 21.2888 19.4056 21.2888C19.5564 21.2888 19.7117 21.2295 19.827 21.1063C20.0577 20.8691 20.0577 20.4767 19.827 20.2394ZM1.19317 9.48517C1.19317 5.324 4.48436 1.94305 8.52517 1.94305C12.5704 1.94305 15.8572 5.32856 15.8572 9.48517C15.8572 13.6418 12.5704 17.0319 8.52517 17.0319C4.48436 17.0319 1.19317 13.6463 1.19317 9.48517Z"
          fill="white"/>
</svg>
