<svg width="24" height="24" viewBox="0 0 24 24" fill="none" xmlns="http://www.w3.org/2000/svg">
    <path d="M15 18.5C15 19.2956 14.6839 20.0587 14.1213 20.6213C13.5587 21.1839 12.7956 21.5 12 21.5C11.2044 21.5 10.4413 21.1839 9.87868 20.6213C9.31607 20.0587 9 19.2956 9 18.5"
          stroke="white" stroke-linecap="round"/>
    <path d="M5.5 10.53V9C5.5 7.27609 6.18482 5.62279 7.40381 4.40381C8.62279 3.18482 10.2761 2.5 12 2.5C13.7239 2.5 15.3772 3.18482 16.5962 4.40381C17.8152 5.62279 18.5 7.27609 18.5 9V10.53C18.5 11.95 19.06 13.31 20.07 14.32L20.1 14.35C20.36 14.61 20.5 14.95 20.5 15.32V18.25C20.5 18.39 20.39 18.5 20.25 18.5H3.75C3.6837 18.5 3.62011 18.4737 3.57322 18.4268C3.52634 18.3799 3.5 18.3163 3.5 18.25V15.32C3.5 14.95 3.64 14.61 3.9 14.35L3.93 14.32C4.93 13.32 5.5 11.95 5.5 10.53V10.53Z"
          stroke="white" stroke-linejoin="round"/>
</svg>
