<svg width="24" height="24" viewBox="0 0 24 24" fill="none" xmlns="http://www.w3.org/2000/svg">
    <path d="M4.5 6.25V21C4.5 21.2 4.74 21.32 4.9 21.2L10.35 17.11C10.3933 17.0775 10.4459 17.06 10.5 17.06C10.5541 17.06 10.6067 17.0775 10.65 17.11L16.1 21.2C16.26 21.32 16.5 21.2 16.5 21V6.25C16.5 6.1837 16.4737 6.12011 16.4268 6.07322C16.3799 6.02634 16.3163 6 16.25 6H4.75C4.6837 6 4.62011 6.02634 4.57322 6.07322C4.52634 6.12011 4.5 6.1837 4.5 6.25Z"
          stroke="white" stroke-linecap="round"/>
    <path d="M8 6V3.25C8 3.11 8.11 3 8.25 3H19.75C19.89 3 20 3.11 20 3.25V16.5" stroke="white" stroke-linecap="round"/>
</svg>
